<?xml version="1.0" encoding="UTF-8"?><svg id="Warstwa_2" xmlns="http://www.w3.org/2000/svg" viewBox="0 0 536.82 340.8"><defs><style>.cls-1{fill:#deffff;}.cls-2{fill:none;opacity:.25;}</style></defs><path class="cls-1" d="m196.39,225.61c4.47,54.42-32.38,105.03-97.92,107.49C39.19,334.1-1.71,291.76.06,236.71c1.06-33.11,12.3-60.51,34.58-83.41C-32.84,86.91,26.4-3.17,102.12.09c83.14,4.33,103.45,94.48,57.27,151.83,22.07,22.26,34.71,41.72,36.99,73.7h0Zm-119.4,28.07c15.37,11.68,38.73,6.63,48.83-10.86,5.23-8.12,5.94-17.21,2.91-26.01-5-12.18-18.87-18.84-33.42-17.24-15.43,3.24-26.55,14.07-28.25,28.1-.04,1.24-.49,2.47-.48,2.06-.36,11.18,3.98,17.94,10.42,23.95h0Zm-2.97-165.41c-.44,13.66,8.68,26.38,21.07,27.61,11.16.77,21.43-9.26,22.28-22.9.44-13.66-8.7-25.97-20.69-26.77-12.4-.81-21.83,8.83-22.67,22.06h.01Z"/><path class="cls-1" d="m337.03,139.4c0,29.95-32.63,50.65-58.2,52.6-13.64.73-27.27,1.7-41.15,2.19-3.65.24-7.3-.49-10.96-1.22-8.77-2.44-13.39-8.28-13.64-17.29,0-7.06.49-13.39.49-20.21.24-9.5.24-19,.24-28.49-.24-19.48-.49-38.47-1.22-57.71-.73-15.1-2.19-29.95-3.41-45.05.24-16.07,3.65-22.16,19.24-23.62,26.05-.24,56.01.24,76.46,11.93,20.94,10.71,30.19,33.11,23.13,55.52-1.46,4.38-3.16,8.76-5.11,12.9-1.7,4.14-4.14,7.79-6.82,11.93,13.39,12.18,20.46,28.73,20.94,46.51h0Zm-58.2-83.28c-.97-6.82-4.14-11.2-9.74-11.93-4.14-.49-8.28-.24-12.42,0-2.43.24-3.65,1.46-3.41,4.14.49,7.06.73,14.37,1.22,22.16,10.47,1.22,25.08-2.19,24.35-14.37Zm-1.21,84.26c3.65-2.19,6.33-5.36,5.85-10.71-.49-5.12-3.17-8.77-7.79-10.23-6.58-2.19-13.15-3.41-19.72-.49v21.92c0,1.46.49,2.92.49,4.14,7.79,1.22,14.37-.97,21.19-4.63h-.02Z"/><g class="cls-2"><path class="cls-1" d="m337.03,139.4c0,29.95-32.63,50.65-58.2,52.6-13.64.73-27.27,1.7-41.15,2.19-3.65.24-7.3-.49-10.96-1.22-8.77-2.44-13.39-8.28-13.64-17.29,0-7.06.49-13.39.49-20.21.24-9.5.24-19,.24-28.49-.24-19.48-.49-38.47-1.22-57.71-.73-15.1-2.19-29.95-3.41-45.05.24-16.07,3.65-22.16,19.24-23.62,26.05-.24,56.01.24,76.46,11.93,20.94,10.71,30.19,33.11,23.13,55.52-1.46,4.38-3.16,8.76-5.11,12.9-1.7,4.14-4.14,7.79-6.82,11.93,13.39,12.18,20.46,28.73,20.94,46.51h0Zm-58.2-83.28c-.97-6.82-4.14-11.2-9.74-11.93-4.14-.49-8.28-.24-12.42,0-2.43.24-3.65,1.46-3.41,4.14.49,7.06.73,14.37,1.22,22.16,10.47,1.22,25.08-2.19,24.35-14.37Zm-1.21,84.26c3.65-2.19,6.33-5.36,5.85-10.71-.49-5.12-3.17-8.77-7.79-10.23-6.58-2.19-13.15-3.41-19.72-.49v21.92c0,1.46.49,2.92.49,4.14,7.79,1.22,14.37-.97,21.19-4.63h-.02Z"/></g><path class="cls-1" d="m402.03,182.26c-.73,5.36-3.65,8.77-9.01,9.5-5.84.73-18.51,1.46-24.1.97-11.45-.73-16.32-6.58-16.32-18.02v-18.26c.49-42.61.24-93.99,2.19-136.6,0-2.92,0-6.09.24-9.25.24-5.85,3.41-9.5,9.25-9.5,7.79-.24,22.4-.24,29.95.49,6.33.49,8.52,3.41,8.76,9.99.49,5.11,0,10.22,0,15.58,0,85.95,0,119.31-.24,143.18,0,3.9-.24,8.04-.73,11.93h.01Z"/><g class="cls-2"><path class="cls-1" d="m402.03,182.26c-.73,5.36-3.65,8.77-9.01,9.5-5.84.73-18.51,1.46-24.1.97-11.45-.73-16.32-6.58-16.32-18.02v-18.26c.49-42.61.24-93.99,2.19-136.6,0-2.92,0-6.09.24-9.25.24-5.85,3.41-9.5,9.25-9.5,7.79-.24,22.4-.24,29.95.49,6.33.49,8.52,3.41,8.76,9.99.49,5.11,0,10.22,0,15.58,0,85.95,0,119.31-.24,143.18,0,3.9-.24,8.04-.73,11.93h.01Z"/></g><path class="cls-1" d="m499.18,61c.24,28.24.73,58.68,1.46,86.93.24,9.01.97,17.77.97,26.79,0,4.14-1.46,8.52-2.68,12.66-1.46,4.14-5.36,6.09-9.74,6.09-6.09,0-11.93.24-17.78,0-1.95,0-3.9-.24-5.84-.73-8.52-2.68-10.23-4.87-9.99-13.64.24-27.27.73-54.55.73-81.82.24-13.64-.49-29.95-.73-43.83,0-2.19-.49-4.63-.49-6.58-7.79,0-14.61,0-21.43.24-15.34,0-17.04-1.95-17.53-16.56-.24-4.87-.24-9.74-.24-14.37,0-7.06,1.95-10.23,8.76-12.18,4.14-.97,8.52-1.95,12.91-2.19,15.58-.73,30.92-1.46,46.27-1.7,12.66,0,25.57.24,37.98.49,2.19,0,4.14.73,6.33,1.22,5.12,1.46,8.03,4.87,8.28,9.98.49,7.3.49,15.1.24,22.65-.24,7.3-3.17,9.74-9.98,10.22-9.25.49-18.02,1.22-27.76,1.71,0,5.11,0,9.98.24,14.61h.02Z"/><g class="cls-2"><path class="cls-1" d="m499.18,61c.24,28.24.73,58.68,1.46,86.93.24,9.01.97,17.77.97,26.79,0,4.14-1.46,8.52-2.68,12.66-1.46,4.14-5.36,6.09-9.74,6.09-6.09,0-11.93.24-17.78,0-1.95,0-3.9-.24-5.84-.73-8.52-2.68-10.23-4.87-9.99-13.64.24-27.27.73-54.55.73-81.82.24-13.64-.49-29.95-.73-43.83,0-2.19-.49-4.63-.49-6.58-7.79,0-14.61,0-21.43.24-15.34,0-17.04-1.95-17.53-16.56-.24-4.87-.24-9.74-.24-14.37,0-7.06,1.95-10.23,8.76-12.18,4.14-.97,8.52-1.95,12.91-2.19,15.58-.73,30.92-1.46,46.27-1.7,12.66,0,25.57.24,37.98.49,2.19,0,4.14.73,6.33,1.22,5.12,1.46,8.03,4.87,8.28,9.98.49,7.3.49,15.1.24,22.65-.24,7.3-3.17,9.74-9.98,10.22-9.25.49-18.02,1.22-27.76,1.71,0,5.11,0,9.98.24,14.61h.02Z"/></g><path class="cls-1" d="m351.82,232.56c4.93-.4,10.2-.44,15.29-.23h.17v-17.86h-.17c-22.51.1-45.04.12-67.55-.1-7.3.71-36.54,1.09-43.87,1.24-14.67.3-30.69,5.09-38.32,17.63-4.85,8.01-5.47,17.8-5.97,27.14-.64,12.28-1.29,24.55-1.94,36.81-.49,9.48-.84,19.58,3.94,27.77,9,15.35,30.39,16.3,48.17,15.68,35.05-1.23,70.31-1.83,105.53-1.37h.17v-16.33c-.06.01-.11.01-.17,0-3.24.04-6.47-.08-9.67-.43-4.02-.46-6.99-3.33-7.56-7.46-.46-2.74-.69-5.5-.91-8.25-.35-22.12-.69-46.06-.93-68.18,0-2.75.81-5.85,3.79-6.07h0Zm-101.29,91.1c-23.5-1.83-29.22-23.84-25.79-42.17.23-3.67,1.83-7.46,5.95-6.88,3.44.69,7.11,1.14,10.55,1.72,4.47.91,5.95,3.21,5.16,7.67-.69,6.42-2.41,15.48,5.62,16.73,7.55,1.26,10.2-6.3,11.34-12.26,1.83-14.55-.69-34.49-6.42-47.45-1.6-3.9-.69-6.65,3.21-7.67,2.98-.81,5.97-1.49,8.83-1.84,6.41-1.03,9.28,1.95,10.76,5.97,8.95,24.86,15.02,89.49-29.21,86.17h0Zm90.99-5.38c-.35,2.75-1.95,4.13-4.82,4.25-13.85.34-26.35,1.49-37.69-.23-3.33-.46-5.62-2.87-5.74-6.42-.79-24.87-.79-48.94-.91-69.21,0-6.42-.12-13.99,7.11-14.22,4-.11,8.02,0,11.92-.11,2.51,0,4.93-.23,7.34-.35,4.81-.23,9.5-.69,14.1-.79,2.86,0,6.64,1.48,7.55,4.23,1.26,3.79,1.61,7.79.81,11.57-.46,3.33-2.63,6.54-6.99,6.19-3.9-.35-7.79-.46-11.69-.58-2.63,0-4.58.12-6.07.46-5.16,1.03-4,4.47-4.25,14.44,0,2.53,2.75,2.98,4.93,2.98,4.02,0,7.44-.12,10.88.34,2.18.23,3.79,1.49,3.9,3.9.12,2.98.46,6.19.35,9.18-.12,3.44-2.07,5.15-5.74,5.15-1.83,0-3.66-.23-5.38-.34-1.95-.12-3.9-.23-5.84-.12-1.95.12-2.63.69-2.63,2.65,0,2.51-.12,5.04,0,7.78.11,3.1.79,3.67,3.9,3.67,11.57,0,15.12-.34,18.68-.46,4.35-.11,6.64,1.72,6.76,5.85.11,3.9-.12,6.42-.46,10.2h-.02Z"/><path class="cls-1" d="m524.92,297.21c-.65-12.27-1.3-24.53-1.94-36.81-.49-9.34-1.12-19.13-5.97-27.14-7.63-12.54-23.64-17.33-38.32-17.63-7.34-.14-36.57-.53-43.87-1.24-22.51.22-45.04.19-67.55.1h-.17v17.86h.17c.66.04,1.31.07,1.96.11,2.07.23,3.33,1.95,3.44,4.02.23,2.98.46,6.07.46,9.28.58,15.24.81,32.42,1.14,47.67.12,2.06,0,4.13,0,6.41,1.72-.11,2.98-.23,4.37-.23,4.13,0,8.13,0,12.26.12,2.63,0,4.02,1.6,4.58,4.13,1.03,4.35,1.03,8.82,0,13.17-.57,2.98-2.63,4.37-5.5,4.82-1.37.11-2.75.23-4.02.34-6.21.23-12.47.75-18.69.78-.06.01-.11.01-.17,0v16.33h.17c35.23-.46,70.49.14,105.53,1.37,17.78.61,39.17-.34,48.17-15.68,4.79-8.19,4.44-18.29,3.94-27.77h0Zm-74.67,19.8c-.57,2.98-2.63,4.37-5.5,4.82-1.37.11-2.75.23-4,.34-9.51.35-19.15,1.38-28.54.35-4-.46-6.99-3.33-7.56-7.46-.46-2.74-.69-5.5-.91-8.25-.35-22.12-.69-46.06-.91-68.18,0-2.75.79-5.85,3.78-6.07,5.62-.46,11.69-.46,17.41-.12,2.07.23,3.33,1.95,3.44,4.02.23,2.98.46,6.07.46,9.28.58,15.24.81,32.42,1.15,47.67.11,2.06,0,4.13,0,6.41,1.72-.11,2.97-.23,4.35-.23,4.13,0,8.13,0,12.26.12,2.65,0,4.02,1.6,4.58,4.13,1.03,4.35,1.03,8.82,0,13.17h0Zm57.64-31.05c-.23,6.19-1.49,12.38-4.25,18.22-4.35,9.86-12.03,16.04-22.8,18.11-5.39,1.02-10.54,1.02-15.92,0-4.35-.91-6.3-2.63-6.88-7.11-.58-3.09-.58-6.53-.35-9.86.12-2.97,1.72-4.81,4.93-5.27,1.95-.23,3.9-.11,5.84-.11,3.56-.12,7.11.11,10.66-.35,3.9-.69,6.42-3.44,7.23-7.67-8.02,1.02-15.59.69-23.04-1.84-16.04-5.72-14.43-32.77-14.89-45.38-.12-3.09,0-6.07.34-9.16.23-2.63,1.61-3.56,4.13-3.67,1.49,0,2.98.11,4.35.11,2.65,0,5.16.23,7.68,0,3.55-.11,5.27,1.03,5.85,4.58.34,2.07.34,4.25.34,6.42.12,4.58-.11,11.57.12,16.27,1.03,18.91,15.47,14.55,15.47-2.06-.11-5.05-.46-15.59-.79-20.64-.12-3.09,1.71-4,3.66-4.23,3.44-.35,8.25-.69,11.81-.23,6.3.23,6.76,6.99,6.76,11.92,0,13.18,0,28.65-.23,41.94h-.02Z"/></svg>